<svg xmlns="http://www.w3.org/2000/svg" version="1.1" xmlns:xlink="http://www.w3.org/1999/xlink" xmlns:svgjs="http://svgjs.dev/svgjs" width="1000" height="1125" viewBox="0 0 1000 1125"><g transform="matrix(1,0,0,1,0.00017081513067296328,0)"><svg viewBox="0 0 320 360" data-background-color="#1f0f53" preserveAspectRatio="xMidYMid meet" height="1125" width="1000" xmlns="http://www.w3.org/2000/svg" xmlns:xlink="http://www.w3.org/1999/xlink"><g id="tight-bounds" transform="matrix(1,0,0,1,0.00005466084189720277,0)"><svg viewBox="0 0 320 360" height="360" width="320"><g><svg></svg></g><g><svg viewBox="0 0 320 360" height="360" width="320"><g><path transform="translate(-119.39272,-98.31927) scale(5.58313,5.58313)" d="M36.7 23.5c0-0.2 0.1-0.4 0.3-0.4 0.2 0 0.4 0.1 0.4 0.4 0.1 0 0.3 0 0.4-0.1 0.4 0 0.8-0.1 1.1 0 0.3 0.1 0.5 0.1 0.8 0.2 0.3 0.1 0.5 0 0.7-0.1 0.4-0.1 0.7-0.3 1.1-0.4 0.2-0.1 0.3-0.1 0.5-0.1 0.2-0.1 0.4-0.1 0.7-0.2 0.5-0.1 1-0.2 1.4-0.4 0.4-0.2 0.8-0.2 1.2-0.3 0.2 0 0.3-0.1 0.5-0.2 0.1 0 0.1-0.1 0.2-0.2 0.2-0.1 0.3-0.2 0.5-0.1 0.1 0.1 0.3 0.1 0.4 0h0.1c0.6 0 1.2-0.1 1.9 0 0.1 0 0.2 0 0.2 0 0.3-0.2 0.7-0.2 1.1-0.2 0.1 0 0.3 0 0.4 0h0.1c0.4 0 0.8 0 1.1 0.1 0.3 0 0.5 0.1 0.8 0.2 0.3 0 0.5 0 0.8 0.1 0.2 0 0.4 0 0.6 0 0.1 0 0.2 0 0.2 0 0.4 0.1 0.8 0.1 1.2 0.1 0.3 0.1 0.6 0.2 1 0.2 0.1 0 0.2 0 0.3 0 0.1 0 0.2 0.1 0.3 0.1l0.1 0.1c0.4 0 0.7 0.2 1.1 0.2 0.1 0 0.3 0 0.4 0.1 0.3 0.2 0.7 0.3 1.1 0.3 0.2 0 0.3 0.1 0.4 0.2 0.3 0.1 0.5 0.2 0.8 0.3 0.2 0.1 0.4 0 0.6 0.1 0.3 0.1 0.7 0.2 1 0.5 0.2 0.2 0.4 0.2 0.7 0.4 0.1 0 0.2 0.1 0.3 0.2 0.3 0.2 0.6 0.4 0.9 0.5 0.1 0 0.2 0.1 0.3 0.1 0.3 0.2 0.6 0.5 1 0.7 0.2 0.1 0.3 0.2 0.5 0.3h0.1c0.3 0.3 0.7 0.5 1 0.8 0.3 0.3 0.5 0.5 0.9 0.7 0 0 0 0 0 0.1 0.1 0.2 0.2 0.3 0.4 0.4 0.2 0.1 0.3 0.2 0.4 0.3 0.3 0.2 0.6 0.4 0.8 0.6 0.1 0.1 0.2 0.2 0.4 0.4 0.1 0.1 0.2 0.2 0.3 0.2 0.4 0.1 0.6 0.4 0.9 0.7 0.2 0.2 0.5 0.5 0.7 0.7 0.1 0.1 0.2 0.3 0.3 0.5 0.2 0.6 0.5 1.2 0.8 1.7 0 0 0 0.1 0.1 0.2v0.1c0.2 0.2 0.3 0.5 0.5 0.7 0.1 0.1 0.1 0.2 0.2 0.3 0.2 0.3 0.3 0.7 0.5 1 0.3 0.5 0.5 1 0.7 1.5v0.1c0.1 0.2 0.2 0.4 0.3 0.7 0 0.2 0.2 0.4 0.3 0.7 0.1 0.5 0.4 1 0.5 1.6 0 0.1 0.1 0.2 0.1 0.4 0.1 0.3 0.2 0.6 0.3 0.9 0 0.1 0.1 0.2 0.2 0.3 0.2 0.2 0.2 0.4 0.2 0.6-0.1 0.4 0 0.8 0.1 1.2 0 0.1 0 0.2 0 0.4 0.1 0.4 0.2 0.9 0.2 1.3 0 0.1 0 0.3 0 0.4 0 0.3 0.1 0.6 0.3 0.9 0 0.1 0.1 0.1 0.1 0.1 0.1 0.1 0.2 0.3 0.3 0.4 0.1 0.1 0.1 0.1 0.2 0.2 0.2 0.2 0.3 0.4 0.3 0.7 0 0.1-0.1 0.3-0.1 0.4 0 0.1 0 0.3 0.1 0.4 0.1 0.1 0.1 0.2 0.1 0.3 0 0.1-0.1 0.2-0.2 0.2v0c-0.1 0.3-0.5 0.4-0.6 0.7-0.1 0.4-0.2 0.8-0.3 1.2-0.1 0.3-0.1 0.5-0.1 0.8 0 0.3-0.1 0.5-0.1 0.8-0.1 0.4-0.2 0.8-0.3 1.2 0 0.2-0.1 0.4-0.1 0.6 0.1 0.1 0.2 0.2 0.3 0.2 0.2 0.2 0.4 0.4 0.6 0.6 0.1 0.1 0.1 0.2 0 0.2-0.1 0.1-0.2 0.1-0.3 0.1-0.1-0.1-0.3-0.2-0.4-0.2-0.1-0.1-0.3-0.2-0.5-0.1 0 0.2-0.1 0.4-0.1 0.5-0.1 0.2-0.2 0.5-0.2 0.7-0.1 0.4-0.3 0.7-0.4 1.1-0.2 0.5-0.4 0.9-0.6 1.3-0.1 0.2-0.2 0.4-0.3 0.6v0c0 0.3-0.3 0.6-0.4 0.9-0.2 0.4-0.4 0.8-0.6 1.3-0.1 0.2-0.2 0.4-0.3 0.5-0.2 0.5-0.4 0.9-0.7 1.3-0.2 0.3-0.4 0.5-0.6 0.6-0.2 0.2-0.4 0.4-0.6 0.6-0.1 0.1-0.2 0.2-0.3 0.3-0.1 0.1-0.1 0.1-0.2 0.2-0.2 0.3-0.5 0.5-0.7 0.8-0.2 0.2-0.3 0.4-0.6 0.6-0.2 0.2-0.4 0.5-0.7 0.6-0.1 0.1-0.2 0.3-0.3 0.4-0.1 0.1-0.2 0.3-0.3 0.4 0 0.2 0.1 0.4 0.1 0.5 0 0.3-0.3 0.4-0.5 0.2-0.3-0.2-0.3-0.2-0.6 0-0.3 0.2-0.6 0.5-1 0.6-0.1 0-0.1 0.1-0.2 0.1-0.2 0.1-0.3 0.3-0.5 0.4-0.2 0.2-0.5 0.3-0.7 0.5-0.1 0.1-0.2 0.1-0.3 0.2-0.3 0.2-0.6 0.3-0.9 0.6-0.1 0.1-0.2 0.1-0.3 0.2 0 0.1 0 0.1 0 0.2 0 0.2-0.2 0.4-0.5 0.3-0.3-0.1-0.5 0-0.8 0-0.3 0.1-0.6 0.3-0.9 0.4-0.1 0-0.2 0.1-0.3 0.2-0.3 0.2-0.6 0.3-0.9 0.4-0.2 0-0.4 0.2-0.6 0.2-0.1 0-0.2 0.1-0.3 0.1h-0.1c-0.4 0.3-0.8 0.5-1.2 0.8-0.1 0-0.1 0.1-0.2 0.2-0.1 0.2-0.2 0.3-0.4 0.3-0.5 0-0.7 0.4-0.6 0.8 0 0.1 0.1 0.2 0.1 0.3 0.1 0.2 0 0.4-0.1 0.5-0.1 0.1-0.4 0.1-0.5-0.1-0.2-0.2-0.3-0.4-0.4-0.7-0.1-0.2-0.3-0.4-0.5-0.5-0.2-0.1-0.4-0.1-0.6 0-0.1 0-0.1 0.1-0.2 0.1-0.2 0.2-0.5 0.3-0.8 0.2-0.1 0-0.3 0-0.3 0.1-0.1 0.1-0.1 0.3 0 0.4 0.2 0.2 0.1 0.4 0.1 0.7 0 0.4-0.3 0.6-0.7 0.4-0.1-0.1-0.2-0.1-0.3-0.2-0.1 0-0.1-0.1-0.1-0.2-0.1-0.1-0.1-0.3-0.2-0.5-0.2 0.1-0.4 0.1-0.6 0.2-0.1 0-0.2 0.1-0.3 0.1-0.3 0-0.4 0-0.5-0.3-0.1-0.3-0.3-0.3-0.5-0.4-0.4-0.1-0.9-0.1-1.3-0.3h-0.1c-0.4-0.3-0.8-0.3-1.3-0.3-0.3 0-0.6 0.1-0.9 0.1-0.3 0-0.5 0.1-0.7 0.3-0.1 0.1-0.2 0.2-0.3 0.2-0.1-0.1-0.1-0.2-0.2-0.3v-0.1c0-0.1-0.1-0.2-0.2-0.1-0.2 0.1-0.4-0.1-0.6-0.2-0.1-0.1-0.3-0.3-0.3-0.5-0.1-0.1-0.2-0.2-0.3-0.2-0.2 0-0.5-0.1-0.7-0.1-0.1 0-0.2 0-0.2-0.1-0.1-0.1-0.2-0.1-0.4-0.1-0.1 0-0.1-0.1-0.2-0.1 0.2 0.2 0.3 0.4 0.4 0.6 0 0.1 0.1 0.1 0.1 0.2 0.1 0.2 0 0.3-0.3 0.3-0.2 0-0.2 0-0.3 0.1 0 0.2 0 0.3 0 0.5 0 0.1 0 0.2-0.2 0.3 0 0-0.1 0-0.1 0.1-0.1 0.1-0.1 0.2 0 0.3 0.3 0.2 0.5 0.3 0.8 0.4 0.3 0 0.3 0.2 0.4 0.4 0.1 0.2 0 0.3-0.1 0.5-0.2 0.2-0.4 0.4-0.6 0.6-0.3 0.1-0.5 0.4-0.8 0.4-0.2 0-0.4-0.1-0.5-0.3-0.1-0.5-0.1-0.9 0.1-1.4 0-0.1 0.1-0.2 0-0.3-0.9 0-0.9-0.2-0.9-0.3 0-0.2 0.1-0.3 0.1-0.5 0.1-0.2 0-0.3-0.3-0.4-0.1 0-0.2 0-0.3 0-0.1 0-0.1-0.1-0.3-0.1 0.2-0.1 0.3-0.1 0.5-0.2-0.1-0.4-0.2-0.7-0.5-0.9-0.1-0.1-0.2-0.2-0.2-0.4 0-0.3-0.2-0.5-0.3-0.7-0.2-0.3-0.6-0.4-0.9-0.4-0.3-0.1-0.5-0.1-0.8-0.2-0.3-0.1-0.6-0.4-0.9-0.5-0.1-0.1-0.2-0.2-0.4-0.3-0.4-0.2-0.7-0.5-1-0.8-0.2-0.1-0.3-0.3-0.5-0.4-0.2-0.2-0.3-0.4-0.5-0.5-0.2-0.2-0.4-0.4-0.7-0.6-0.3-0.2-0.5-0.5-0.8-0.8-0.2-0.3-0.5-0.5-0.8-0.7-0.1 0-0.2 0-0.3 0-0.1 0-0.2 0.1-0.3 0.1-0.3 0.1-0.5 0.3-0.8 0.4 0.1-0.1 0.1-0.1 0-0.3-0.1-0.1-0.2-0.2-0.3-0.2-0.2 0-0.4 0-0.6 0-0.4 0-0.8 0.1-1.2 0.1-0.3 0-0.7 0.1-1 0.2 0.1 0.2 0.1 0.3 0.2 0.5-0.2 0.1-0.4 0.1-0.6 0.1-0.1 0-0.3 0.1-0.4 0.2-0.1 0-0.1 0.1-0.2 0-0.2-0.1-0.4 0-0.6 0.1h-0.1c0 0 0-0.1 0.1-0.1 0.1-0.1 0.2-0.2 0.3-0.3 0.1-0.1 0.2-0.1 0.4-0.2-0.1-0.1-0.1-0.2-0.1-0.2-0.1-0.1-0.2-0.1-0.3 0-0.1 0.1-0.2 0.2-0.3 0.3-0.1 0.1-0.2 0.1-0.3 0-0.1-0.1-0.1-0.2 0-0.3 0-0.1 0.1-0.2 0.2-0.3 0.1-0.1 0.1-0.2 0.2-0.3-0.2-0.2-0.3-0.4-0.5-0.5-0.3-0.2-0.6-0.5-0.8-0.8-0.2-0.4-0.5-0.7-0.9-0.9-0.1-0.1-0.2-0.2-0.3-0.3-0.1-0.1-0.1-0.1-0.2-0.2-0.3 0.1-0.5 0.3-0.8 0.4-0.1 0-0.1 0.1-0.2 0.2-0.1 0.2-0.3 0.2-0.5 0.2-0.1 0-0.2-0.1-0.1-0.2 0.1-0.2 0.2-0.4 0.5-0.3 0 0 0.1 0 0.1-0.1 0.2-0.2 0.4-0.5 0.7-0.7-0.1-0.3-0.3-0.5-0.4-0.7-0.1-0.1-0.1-0.2-0.1-0.4 0-0.1 0-0.1-0.1-0.2 0 0-0.1 0-0.2 0.1-0.1 0.1-0.3 0.2-0.5 0 0-0.1 0-0.2 0.1-0.3l0.1-0.1c0.3-0.1 0.3-0.4 0.3-0.7v-0.1c-0.1-0.2-0.1-0.3 0.1-0.5 0.3-0.2 0.6-0.6 0.7-0.9 0.1-0.2 0.3-0.3 0.5-0.5 0.2-0.2 0.4-0.4 0.5-0.7h0.1c0.4 0.1 0.5-0.2 0.7-0.5 0-0.1 0-0.2 0.1-0.2 0.2-0.2 0.2-0.4 0.1-0.7 0-0.1-0.1-0.3-0.1-0.4 0-0.1 0-0.1-0.1-0.2-0.3-0.2-0.3-0.4 0-0.6 0.2-0.1 0.2-0.3 0.3-0.4 0.1-0.2 0.1-0.4 0.1-0.7-0.1-0.3-0.1-0.7-0.2-1-0.1-0.4-0.2-0.9-0.3-1.3 0-0.1 0-0.1 0-0.2 0-0.3 0-0.5-0.1-0.8-0.1-0.1-0.1-0.3-0.1-0.4-0.1-0.3-0.2-0.5-0.5-0.6-0.3-0.2-0.7-0.3-1-0.5-0.1-0.1-0.2 0-0.3 0.1-0.1 0.2-0.3 0.4-0.4 0.6-0.1 0.1-0.2 0.3-0.3 0.5-0.2 0.2-0.6 0.4-0.9 0.1-0.1-0.2-0.2-0.3 0-0.5 0.2-0.3 0.4-0.6 0.7-0.8 0.1-0.1 0.2-0.3 0.3-0.4 0.1-0.2 0.1-0.4 0.1-0.6-0.1-0.4-0.2-0.8-0.2-1.3 0-0.5 0-0.9 0.1-1.4 0.1-0.2 0.1-0.5 0.2-0.7 0-0.1 0.1-0.3 0.2-0.4 0.2-0.2 0.4-0.4 0.5-0.7 0.1-0.3 0.3-0.6 0.3-0.9 0-0.1 0.1-0.2 0.1-0.3 0-0.1 0.1-0.3 0.1-0.4-0.1-0.3 0-0.5 0.1-0.7 0.1-0.2 0.2-0.5 0.3-0.7 0.2-0.4 0.2-0.9 0.6-1.3 0.1-0.2 0.2-0.4 0.3-0.6 0.1-0.4 0.3-0.7 0.5-1 0.1-0.1 0.1-0.1 0.1-0.2 0.1-0.3 0.3-0.6 0.5-0.9 0.2-0.3 0.2-0.6 0.3-0.9 0-0.1 0-0.2 0.1-0.3 0.3-0.3 0.2-0.7 0.1-1.1-0.2-0.5-0.3-1-0.2-1.5 0-0.1 0-0.2 0.1-0.2 0.1-0.2 0.1-0.3 0.2-0.5v-0.1c0.2-0.2 0.4-0.5 0.7-0.6 0.4-0.2 0.8-0.3 1.3-0.4 0.4 0 0.8-0.2 1.1-0.6 0-0.1 0.1-0.1 0.2-0.2l0.1-0.1c0.1-0.2 0.2-0.3 0.3-0.4 0.2-0.2 0.4-0.5 0.6-0.7 0.2-0.2 0.4-0.5 0.7-0.8l0.1-0.1c0.2-0.2 0.4-0.4 0.6-0.5 0.2-0.2 0.4-0.4 0.6-0.6 0.2-0.2 0.3-0.4 0.5-0.6 0.2-0.1 0.4-0.3 0.6-0.5 0.2-0.2 0.4-0.4 0.5-0.5 0.2-0.2 0.5-0.4 0.7-0.5 0.2-0.1 0.4-0.2 0.5-0.5 0.1-0.3 0.2-0.5 0.3-0.8 0-0.2 0.1-0.4 0.2-0.6 0.1 0 0.2 0 0.4-0.1-0.1-0.1-0.2-0.1-0.2-0.2 0-0.1 0.1-0.2 0.1-0.2 0-0.1 0.1-0.2 0.1-0.3 0 0 0.1 0 0.1-0.1 0 0 0.1 0 0.1-0.1-0.2 0.1-0.3 0-0.4-0.1 0.1 0.1 0.2 0.1 0.4 0.2 0 0 0.1 0 0.1-0.1 0-0.1 0-0.2 0-0.2 0 0-0.1 0-0.2 0-0.1 0-0.2 0.1-0.3 0.1zM54 70.5c0-0.1-0.1-0.1-0.1-0.2-0.1-0.2 0-0.3 0.1-0.4 0.1-0.1 0.2-0.1 0.4-0.1 0.2 0.1 0.3 0.2 0.3 0.4 0 0.1 0 0.3 0 0.4 0.1 0.4 0.1 0.4 0.5 0.4 0.2 0 0.4 0 0.6 0 0.4-0.1 0.8-0.3 1.2-0.4 0.4-0.1 0.8-0.2 1.2-0.3 0.1 0 0.2 0 0.4 0 0.4 0.1 0.7 0 1-0.2 0.1-0.1 0.3-0.1 0.4-0.2 0.2-0.1 0.4-0.1 0.6-0.2 0.5-0.3 1-0.5 1.4-0.8 0.3-0.2 0.6-0.4 0.9-0.6 0.3-0.2 0.6-0.4 0.9-0.6 0.2-0.1 0.5-0.3 0.7-0.5 0.4-0.3 0.7-0.6 1.1-0.8 0.2-0.1 0.3-0.2 0.4-0.3 0.2-0.1 0.3-0.3 0.5-0.4 0.1-0.1 0.2-0.2 0.4-0.3 0.1-0.1 0.1-0.1 0.1-0.2 0.3-0.2 0.6-0.6 0.8-0.9 0.2-0.2 0.4-0.4 0.6-0.7 0.3-0.3 0.5-0.7 0.8-1.1 0.2-0.2 0.4-0.5 0.5-0.7 0.2-0.4 0.4-0.8 0.7-1.1v-0.1c0.2-0.4 0.4-0.8 0.6-1.2 0.3-0.5 0.5-1.1 0.8-1.6 0.1-0.2 0.2-0.4 0.2-0.6 0.2-0.4 0.3-0.8 0.4-1.2 0-0.1 0-0.1 0.1-0.2 0.3-0.6 0.5-1.2 0.6-1.9 0.1-0.4 0.2-0.8 0.3-1.2 0.2-0.6 0.2-1.1 0.3-1.7 0.1-0.4 0.1-0.9 0.1-1.3 0.1-0.6 0.1-1.3 0-1.9 0-0.5-0.1-1.1-0.1-1.6 0-0.5-0.1-0.9-0.2-1.4-0.1-0.5-0.2-0.9-0.3-1.4-0.2-0.4-0.3-0.8-0.4-1.3-0.1-0.4-0.3-0.7-0.3-1.1 0-0.3-0.1-0.6-0.4-0.7-0.3-0.1-0.5-0.2-0.8-0.4-0.6-0.4-0.9-0.9-0.8-1.5 0-0.3 0.1-0.7 0.2-1 0.1-0.3 0.2-0.6 0-0.8-0.1-0.3-0.3-0.5-0.4-0.7-0.2-0.3-0.3-0.5-0.5-0.7-0.2-0.4-0.4-0.8-0.7-1.1-0.4-0.5-0.7-1-1.2-1.4l-0.1-0.1c-0.3-0.4-0.6-0.8-1-1.1-0.2-0.2-0.4-0.4-0.6-0.5-0.1-0.1-0.2-0.2-0.4-0.3-0.3-0.2-0.6-0.3-0.8-0.5-0.3-0.3-0.7-0.5-1-0.7 0 0-0.1 0-0.1-0.1-0.4-0.2-0.7-0.3-1.1-0.5-0.4-0.2-0.8-0.3-1.2-0.3-0.1 0-0.1 0-0.2 0-0.1-0.1-0.3-0.1-0.4-0.1-0.1 0-0.1 0-0.2 0-0.2-0.1-0.5 0-0.7 0-0.4 0.1-0.8 0.1-1.2-0.1-0.5-0.2-0.9-0.4-1.3-0.6-0.3-0.2-0.5-0.4-0.8-0.6-0.6-0.5-1.2-1.1-1.9-1.6 0.1-0.5-0.1-0.6-0.5-0.6-0.2 0-0.4 0.1-0.6 0.2-0.1 0.1-0.1 0.1-0.2 0.2-0.3 0.2-0.5 0.5-0.8 0.7-0.5 0.3-0.7 0.2-1.1 0-0.1-0.1-0.2-0.2-0.3-0.3-0.2-0.2-0.4-0.5-0.5-0.7-0.2-0.4-0.6-0.4-1-0.4-0.2 0-0.5 0.1-0.7 0.1-0.4 0-0.8 0.2-1 0.5-0.2 0.3-0.4 0.6-0.7 0.9-0.1 0.1-0.3 0.2-0.4 0.4-0.2 0.2-0.4 0.2-0.6 0-0.1-0.1-0.2-0.1-0.3-0.2-0.1 0.1-0.2 0.2-0.2 0.3-0.1 0.2-0.2 0.4-0.3 0.7-0.1 0.3-0.3 0.6-0.5 0.8-0.1 0.1-0.1 0.1-0.2 0.2-0.1 0.2-0.4 0.3-0.6 0.3-0.2 0.2-0.4 0.5-0.5 0.7-0.1 0.2-0.2 0.4-0.3 0.7-0.1 0.1-0.1 0.3-0.2 0.4-0.1 0.2-0.1 0.3-0.1 0.5 0.1 0.3-0.1 0.4-0.4 0.5-0.2 0-0.2 0-0.3 0.2 0 0.3 0.1 0.5 0.2 0.8 0.1 0.1 0.2 0.3 0.2 0.4 0 0.2 0.1 0.3 0.3 0.4 0.1 0.1 0.2 0.2 0.3 0.2 0.1 0 0.1 0.1 0.2 0.1 0.1 0.1 0.2 0 0.2-0.1 0.1-0.3 0.2-0.6 0.2-0.9 0.1-0.4 0.1-0.7 0.2-1.1 0.1-0.2 0.2-0.3 0.3-0.4 0 0 0.1 0 0.2 0v0.1c-0.1 0.5-0.3 1.1-0.4 1.6-0.1 0.2-0.1 0.4-0.2 0.6 0 0.1-0.1 0.2-0.2 0.2-0.2 0.1-0.4 0.2-0.6 0.2-0.1 0-0.2 0-0.3 0-0.2-0.1-0.4-0.3-0.6-0.4-0.1-0.1-0.2-0.2-0.3-0.3-0.1-0.2-0.2-0.4-0.3-0.6-0.1-0.2-0.2-0.3-0.4-0.4-0.1-0.1-0.2-0.1-0.3-0.2-0.2-0.2-0.4-0.3-0.7-0.3-0.1 0-0.3 0-0.4 0-0.1 0-0.3 0.1-0.4 0.2-0.2 0.1-0.3 0.1-0.5 0-0.5-0.2-1-0.1-1.5 0.1-0.2 0.1-0.4 0.2-0.6 0.2-0.5 0-0.9 0-1.4 0-0.5 0-0.9-0.1-1.4-0.2-0.2 0-0.4 0-0.6 0-0.4 0.1-0.5 0.4-0.4 0.8 0.1 0.4 0.2 0.9 0.2 1.3 0 0.3 0 0.6 0 0.9 0 0.2 0 0.3 0 0.5 0 0.3-0.1 0.6-0.1 0.9-0.1 0.6-0.4 1.1-0.8 1.5-0.3 0.3-0.7 0.6-1.1 0.7-0.2 0.1-0.4 0.2-0.7 0.3-0.5 0.2-0.9 0.6-1.2 1.1-0.1 0.2-0.2 0.4-0.3 0.6-0.2 0.3-0.3 0.5-0.5 0.8-0.1 0.2-0.3 0.4-0.4 0.6-0.1 0.2-0.3 0.3-0.3 0.5-0.2 0.4-0.3 0.8-0.5 1.2-0.1 0.2-0.1 0.5-0.2 0.7-0.2 0.4-0.2 0.8-0.2 1.3 0 0.1 0 0.2 0 0.4 0 0.5-0.1 1.1-0.1 1.6 0 0.5 0 1 0.1 1.5 0 0.2 0 0.5 0 0.7 0 0.4 0.1 0.9 0.1 1.3 0 0.4 0 0.9 0.2 1.3v0.1c0.1 0.4 0.1 0.8 0.2 1.2 0 0.1 0 0.2 0.1 0.3 0.2 0.6 0.3 1.1 0.5 1.7 0.1 0.4 0.3 0.8 0.4 1.2 0.1 0.4 0.5 0.8 0.6 1.3v0c0.3 0.6 0.6 1.2 1 1.8 0.1 0.2 0.3 0.4 0.4 0.6 0.2 0.3 0.3 0.6 0.5 0.8 0.1 0.2 0.3 0.4 0.4 0.5 0.1 0.2 0.2 0.4 0.4 0.6 0.2 0.2 0.4 0.5 0.6 0.7 0.3 0.5 0.7 0.9 1.1 1.2 0.2 0.2 0.4 0.3 0.6 0.5 0.1 0.1 0.2 0.1 0.2 0.2 0.1 0.1 0.2 0.2 0.4 0.3 0.8 0.4 1.4 1 2.1 1.6 0.3 0.3 0.6 0.6 1 0.8 0.4 0.3 0.7 0.6 1.2 0.7 0 0 0.1 0 0.1 0.1 0.2 0.2 0.5 0.3 0.7 0.4 0.4 0.2 0.9 0.4 1.3 0.6 0.1 0.1 0.3 0.1 0.4 0.2 0.3 0.1 0.6 0.2 0.9 0.3 0.3 0.1 0.5 0.2 0.8 0.2h0.1c0.2 0.1 0.3 0.1 0.5 0 0.1 0 0.2 0 0.2 0.1 0 0.1 0.1 0.1 0.2 0.1 0.1 0 0.2 0 0.4 0 0.1-0.1 0.1-0.2 0.2-0.4 0.1 0.1 0.2 0.1 0.2 0.1 0.1 0.2 0.3 0.2 0.5 0.2h0.1c0.2 0 0.3 0 0.4-0.1 0-0.1 0.2-0.1 0.3-0.1 0.3 0.1 0.6 0.1 0.9 0.2 0.2 0.1 0.5 0.1 0.6-0.1 0.1-0.1 0.2-0.2 0.4-0.1 0.2 0.1 0.3 0.1 0.5 0 0.1 0 0.2 0 0.2 0 0.3 0.1 0.5 0.1 0.8 0.2 0.4 0.1 0.4 0.1 0.7-0.2 0.1-0.1 0.3-0.1 0.4 0 0.1 0.2 0.1 0.3 0.1 0.5 0.1 0 0.1 0 0.2-0.1 0-0.2 0.1-0.2 0.3-0.3 0.1 0.1 0.1 0.1 0.2 0.1 0.2 0.2 0.3 0.2 0.4-0.1 0-0.1 0-0.2 0.1-0.2 0.1 0 0.2 0.1 0.2 0.1 0.1 0.2 0.3 0.3 0.4 0.5 0.2 0.2 0.5 0.2 0.6 0 0.1-0.1 0.2-0.1 0.3-0.1 0-0.1 0-0.2 0-0.3 0.3 0.2 0.2 0.2 0.1 0.2zM37.4 23.8c0.3 0.1 0.5 0.1 0.6-0.1-0.2 0.1-0.4-0.1-0.6 0.1z" fill="#ffdb99" fill-rule="nonzero" stroke="none" stroke-width="1" stroke-linecap="butt" stroke-linejoin="miter" stroke-miterlimit="10" stroke-dasharray="" stroke-dashoffset="0" font-family="none" font-weight="none" font-size="none" text-anchor="none" style="mix-blend-mode: normal" data-fill-palette-color="tertiary"></path></g><g transform="matrix(1,0,0,1,64,123.58437524109779)"><svg viewBox="0 0 192 112.83124951780442" height="112.83124951780442" width="192"><g><svg viewBox="0 0 192 112.83124951780442" height="112.83124951780442" width="192"><g><svg viewBox="0 0 192 112.83124951780442" height="112.83124951780442" width="192"><g><svg viewBox="0 0 192 48.84291103518244" height="48.84291103518244" width="192"><g id="textblocktransform"><svg viewBox="0 0 192 48.84291103518244" height="48.84291103518244" width="192" id="textblock"><g><svg viewBox="0 0 192 30.061253086007873" height="30.061253086007873" width="192"><g transform="matrix(1,0,0,1,0,0)"><svg width="192" viewBox="2.9 -29.9 230.55818181818182 36.1" height="30.061253086007873" data-palette-color="#ffdb99"><path d="M12.45 0.5Q9.8 0.5 8.05 0.25L8.05 0.25Q7.15 0.2 5.9-0.15L5.9-0.15 4.3-0.9 4-0.9Q3.85-0.9 3.7-1.15L3.7-1.15Q3.65-1.2 3.63-1.33 3.6-1.45 3.5-1.65L3.5-1.65Q3.25-2.3 3.2-3.18 3.15-4.05 3.15-4.9L3.15-4.9Q3.15-6 3.2-6.55L3.2-6.55Q3.2-6.85 3.23-7.25 3.25-7.65 3.2-8.15L3.2-8.15Q2.9-17.45 2.9-21.95L2.9-21.95 2.9-23.3 2.9-24.4Q2.9-25.15 2.95-25.55L2.95-25.55Q2.95-25.9 3.05-26.9L3.05-26.9Q3.1-26.9 3.15-27 3.2-27.1 3.25-27.15L3.25-27.15Q3.2-27.1 3.9-27.7L3.9-27.7Q4.05-27.85 4.4-28.15L4.4-28.15Q4.55-28.25 4.67-28.35 4.8-28.45 4.95-28.55L4.95-28.55Q5.15-28.7 5.25-28.9L5.25-28.9Q5.6-28.85 6.3-28.85L6.3-28.85Q7.15-28.85 7.8-28.9 8.45-28.95 8.9-29L8.9-29Q10.05-29.15 12.45-29.15L12.45-29.15Q15.9-29.15 20.45-28.55L20.45-28.55Q20.75-28.5 21.5-28.43 22.25-28.35 22.9-28.2L22.9-28.2Q25.95-27.85 27.95-26.95L27.95-26.95Q30.5-25.85 31.55-23.9L31.55-23.9Q32.15-22.8 32.15-21.4L32.15-21.4Q32.15-20.7 32.05-20.2L32.05-20.2Q31.95-19.2 31.9-19.05L31.9-19.05Q31.6-18.1 30.8-17.25L30.8-17.25Q29.9-16.25 29.2-16L29.2-16Q29.2-15.9 28.9-15.8L28.9-15.8Q28.85-15.8 28.3-15.55L28.3-15.55Q28.2-15.5 28.03-15.43 27.85-15.35 27.75-15.3L27.75-15.3 27.4-15.15Q26.85-14.8 26.75-14.65L26.75-14.65 26.95-14.5Q28.55-13.8 29.6-13.2 30.65-12.6 31.4-11.8L31.4-11.8Q33.15-9.9 33.15-6.95L33.15-6.95 33.15-6.5Q33.15-6.2 33.05-6.2L33.05-6.2 32.9-5.9 32.65-5.55Q32.45-5.35 32.15-5 31.85-4.65 31.4-4.25L31.4-4.25 30.8-3.75Q30.1-3.15 29.4-2.83 28.7-2.5 27.55-2.15L27.55-2.15Q27.4-2.05 26.75-1.8L26.75-1.8Q25.9-1.4 25.5-1.3L25.5-1.3Q24.85-1.05 24.3-0.85 23.75-0.65 23.4-0.5L23.4-0.5Q22.9-0.4 22.2-0.4L22.2-0.4 20.4-0.15Q17.6 0.15 17.2 0.15L17.2 0.15Q16.9 0.25 16.2 0.25L16.2 0.25Q15.75 0.3 15.15 0.3L15.15 0.3 14.95 0.4 14.75 0.5 12.45 0.5ZM17.45-18.65L17.65-18.65 17.8-18.65Q17.9-18.65 17.98-18.68 18.05-18.7 18.05-18.7L18.05-18.7Q18.65-18.95 19.6-19.4L19.6-19.4 20.7-19.9Q21-20.05 21.9-20.45L21.9-20.45Q22.1-20.6 22.23-20.65 22.35-20.7 22.4-20.7L22.4-20.7 22.9-20.95Q22.75-21.25 22.33-21.45 21.9-21.65 21.15-21.9L21.15-21.9Q19.9-22.15 19.15-22.15L19.15-22.15Q17.8-22.15 17.45-21.25L17.45-21.25Q17.2-20.65 17.2-19.05L17.2-19.05Q17.2-19 17.2-18.88 17.2-18.75 17.25-18.7 17.3-18.65 17.45-18.65L17.45-18.65ZM16.9-6.5L17-6.5Q17.05-6.5 17.05-6.55L17.05-6.55 23.7-9.65 24.05-9.95Q23.85-10.05 23.65-10.05L23.65-10.05 23.25-10.25Q22.8-10.35 22.1-10.43 21.4-10.5 20.9-10.65L20.9-10.65Q20.55-10.65 19.9-10.73 19.25-10.8 18.7-10.8L18.7-10.8 17.05-10.8Q16.65-10.8 16.65-10.15L16.65-10.15 16.65-6.7Q16.65-6.5 16.9-6.5L16.9-6.5ZM52.8 1.25Q52.4 1.25 51.7 1.15L51.7 1.15Q51.35 1.05 50.6 1.05L50.6 1.05Q48.7 1.05 45.9 0.2L45.9 0.2 45.55 0.2Q45.2 0.2 44.8 0L44.8 0Q44.7-0.1 44.55-0.18 44.4-0.25 44.2-0.4L44.2-0.4 43.15-1Q41.65-1.85 40.5-3.38 39.35-4.9 38.65-6.75L38.65-6.75Q37.3-10.15 37.3-13.7L37.3-13.7Q37.3-17.65 38.9-21.3L38.9-21.3Q40.6-25.15 43.45-27.4L43.45-27.4Q46.6-29.9 50.45-29.9L50.45-29.9Q51.65-29.9 52.3-29.8L52.3-29.8Q52.3-29.9 52.45-29.9L52.45-29.9 52.6-29.9Q56.1-29.9 58.85-29.65L58.85-29.65Q61.2-29.3 63.2-28.2L63.2-28.2Q67.2-25.55 68.95-22.4L68.95-22.4Q70.8-18.9 70.8-14.15L70.8-14.15Q70.8-9.4 68.55-5.25L68.55-5.25 68.05-4.45Q67.85-4.15 67.8-4.15L67.8-4.15 67.65-3.9 67.3-3.7Q65.15-0.5 60.8 0.65L60.8 0.65Q57.9 1.25 52.8 1.25L52.8 1.25ZM53.65-2.5Q54.1-2.5 54.35-3.05L54.35-3.05Q54.95-3.95 55.35-6.55L55.35-6.55Q55.4-7 55.6-8.55 55.8-10.1 55.85-11.45L55.85-11.45Q56.05-14.85 56.05-15.65L56.05-15.65 56.05-16.8 56.05-17.2Q56.05-19 55.9-20.3L55.9-20.3Q55.75-22.35 55.3-23.55L55.3-23.55Q54.85-24.15 54.6-24.15L54.6-24.15Q54.1-24.15 53.65-23.4L53.65-23.4Q53.2-22.65 52.95-20.65L52.95-20.65 51.9-12.65 51.9-11.65 51.9-11Q52.05-8.9 52.05-8.25L52.05-8.25 52.15-7.05 52.3-5.45Q52.3-5.05 52.4-4.75L52.4-4.75 52.95-2.9Q53-2.7 53.22-2.6 53.45-2.5 53.65-2.5L53.65-2.5ZM90.55 1.25Q90.15 1.25 89.45 1.15L89.45 1.15Q89.1 1.05 88.35 1.05L88.35 1.05Q86.45 1.05 83.65 0.2L83.65 0.2 83.3 0.2Q82.95 0.2 82.55 0L82.55 0Q82.45-0.1 82.3-0.18 82.15-0.25 81.95-0.4L81.95-0.4 80.9-1Q79.4-1.85 78.25-3.38 77.1-4.9 76.4-6.75L76.4-6.75Q75.05-10.15 75.05-13.7L75.05-13.7Q75.05-17.65 76.65-21.3L76.65-21.3Q78.35-25.15 81.2-27.4L81.2-27.4Q84.35-29.9 88.2-29.9L88.2-29.9Q89.4-29.9 90.05-29.8L90.05-29.8Q90.05-29.9 90.2-29.9L90.2-29.9 90.35-29.9Q93.85-29.9 96.6-29.65L96.6-29.65Q98.95-29.3 100.95-28.2L100.95-28.2Q104.95-25.55 106.7-22.4L106.7-22.4Q108.55-18.9 108.55-14.15L108.55-14.15Q108.55-9.4 106.3-5.25L106.3-5.25 105.8-4.45Q105.6-4.15 105.55-4.15L105.55-4.15 105.4-3.9 105.05-3.7Q102.9-0.5 98.55 0.65L98.55 0.65Q95.65 1.25 90.55 1.25L90.55 1.25ZM91.4-2.5Q91.85-2.5 92.1-3.05L92.1-3.05Q92.7-3.95 93.1-6.55L93.1-6.55Q93.15-7 93.35-8.55 93.55-10.1 93.6-11.45L93.6-11.45Q93.8-14.85 93.8-15.65L93.8-15.65 93.8-16.8 93.8-17.2Q93.8-19 93.65-20.3L93.65-20.3Q93.5-22.35 93.05-23.55L93.05-23.55Q92.6-24.15 92.35-24.15L92.35-24.15Q91.85-24.15 91.4-23.4L91.4-23.4Q90.95-22.65 90.7-20.65L90.7-20.65 89.65-12.65 89.65-11.65 89.65-11Q89.8-8.9 89.8-8.25L89.8-8.25 89.9-7.05 90.05-5.45Q90.05-5.05 90.15-4.75L90.15-4.75 90.7-2.9Q90.75-2.7 90.97-2.6 91.2-2.5 91.4-2.5L91.4-2.5ZM136.34 0.9L135.34-0.15Q135.24-0.4 135.09-0.4L135.09-0.4 135.04-0.5Q134.99-0.5 134.92-0.58 134.84-0.65 134.79-0.65L134.79-0.65 130.84-5.15Q130.79-5.25 130.44-5.65 130.09-6.05 129.89-6.25L129.89-6.25Q129.44-6.7 129.29-6.9L129.29-6.9Q128.94-7.15 128.84-7.15L128.84-7.15Q128.54-7.15 128.54-6.8L128.54-6.8 128.54-5.75Q128.44-5.2 128.44-4.15L128.44-4.15Q128.39-3.55 128.39-2.55L128.39-2.55Q128.34-2.05 128.34-1.5L128.34-1.5 128.34-1.15 128.34-0.7Q128.34 0 128.19 0L128.19 0 128.04 0 127.79 0 127.54 0 127.34 0Q125.89 0.15 123.04 0.15L123.04 0.15 118.69 0.15 117.94 0.15 117.04 0.15 116.29 0.15 115.94 0.15 114.04-0.3 113.89-0.65 113.89-1.15Q113.84-1.45 113.84-2.4L113.84-2.4Q113.79-3.4 113.79-6.05L113.79-6.05Q113.79-7.3 113.69-7.9L113.69-7.9 113.69-9.4Q113.54-17 113.54-24.95L113.54-24.95 113.54-26.15Q113.44-26.65 113.44-27.25L113.44-27.25 113.44-27.45 113.44-27.8 113.44-28.15Q113.44-28.25 113.54-28.3L113.54-28.3Q113.64-28.7 113.92-28.88 114.19-29.05 114.64-29.15L114.64-29.15Q114.84-29.15 115.02-29.1 115.19-29.05 115.44-29.05L115.44-29.05Q116.14-28.95 116.29-28.95L116.29-28.95 124.79-28.95 128.64-28.9Q128.74-28.9 128.79-28.85 128.84-28.8 128.84-28.7L128.84-28.7Q129.04-28.2 129.04-27.65L129.04-27.65Q129.09-27.4 129.09-26.95L129.09-26.95Q129.09-24.8 129.04-23.75L129.04-23.75Q128.84-22.4 128.84-21.05L128.84-21.05Q129.44-21.05 129.79-21.3L129.79-21.3Q129.84-21.35 129.94-21.4 130.04-21.45 130.09-21.55L130.09-21.55Q130.19-21.7 130.54-21.95L130.54-21.95 131.29-22.7Q133.04-24.25 132.89-24.15L132.89-24.15 136.89-27.9Q137.44-28.35 137.87-28.7 138.29-29.05 138.59-29.3L138.59-29.3Q139.44-29.9 139.64-29.9L139.64-29.9Q139.89-29.9 140.19-29.4L140.19-29.4Q140.69-28.9 140.79-28.75L140.79-28.75Q141.24-27.9 142.04-27.13 142.84-26.35 143.04-26.15L143.04-26.15Q143.89-25.2 144.34-24.6 144.79-24 145.09-23.25L145.09-23.25 145.09-23.15Q145.09-22.4 143.94-21.25L143.94-21.25Q143.64-20.95 143.42-20.75 143.19-20.55 143.04-20.4L143.04-20.4 142.29-19.65Q142.14-19.65 141.89-19.3L141.89-19.3 140.19-17.9Q139.24-17.05 138.54-16.5L138.54-16.5 138.14-16.15 137.79-15.9Q137.39-15.75 137.29-15.65L137.29-15.65Q137.29-15.55 137.24-15.45 137.19-15.35 137.19-15.2L137.19-15.2Q137.19-14.85 137.42-14.53 137.64-14.2 137.89-13.9L137.89-13.9Q138.04-13.7 138.54-13.4L138.54-13.4Q138.54-13.4 139.04-12.9L139.04-12.9 139.89-12.15 141.54-10.7 142.99-9.35 144.69-7.7Q145.54-6.8 145.92-6.28 146.29-5.75 146.29-5.4L146.29-5.4Q146.29-4.9 145.94-4.65L145.94-4.65Q145.14-3.9 144.54-3.5L144.54-3.5Q143.54-2.8 143.04-2.4L143.04-2.4Q141.19-0.95 140.29-0.45L140.29-0.45Q140.09-0.4 138.89 0.15L138.89 0.15 138.09 0.55Q137.74 0.75 137.69 0.75L137.69 0.75Q137.09 1.05 136.74 1.05L136.74 1.05Q136.49 1.05 136.34 0.9L136.34 0.9ZM152.99 0.65Q152.09 0.65 151.84-1.15L151.84-1.15Q151.69-1.9 151.69-2.5L151.69-2.5Q151.69-3.3 151.64-3.5L151.64-3.5Q151.59-4.95 151.39-8.1L151.39-8.1 151.24-10Q150.94-14.4 150.94-16.5L150.94-16.5 150.94-28.65Q150.94-29.05 151.84-29.25L151.84-29.25Q152.34-29.4 153.24-29.4L153.24-29.4Q153.84-29.4 154.54-29.33 155.24-29.25 155.59-29.25L155.59-29.25Q156.34-29.15 157.94-29.15L157.94-29.15 158.14-29.3 160.34-29.3Q160.49-29.15 160.69-29.15L160.69-29.15 160.89-29.15Q160.94-29.2 161.14-29.2L161.14-29.2Q161.24-29.25 161.44-29.25L161.44-29.25Q161.49-29.3 161.54-29.3 161.59-29.3 161.59-29.3L161.59-29.3Q161.74-29.3 161.94-29.23 162.14-29.15 162.24-29.15L162.24-29.15 165.94-29.15 166.09-20.55Q166.09-20.5 166.02-20.23 165.94-19.95 165.89-19.5L165.89-19.5Q165.74-17.7 165.74-16.65L165.74-16.65 165.74-6.9 165.59-5Q165.44-3.75 165.49-2.95L165.49-2.95Q165.49-1.9 165.42-1.28 165.34-0.65 165.09-0.3L165.09-0.3Q164.79 0.05 164.14 0.05L164.14 0.05 164.09 0 163.94-0.05Q163.84-0.05 163.84 0L163.84 0 163.59 0Q163.29 0.1 163.24 0.15L163.24 0.15Q162.99 0.15 162.09 0L162.09 0 161.39-0.05Q161.14-0.05 161.09 0.15L161.09 0.15 157.34 0.15 156.64 0.15 155.34 0.4 154.14 0.55 152.99 0.65ZM173.64 0.2Q173.14 0.2 172.89-0.28 172.64-0.75 172.44-1.65L172.44-1.65Q172.39-2.05 172.39-3L172.39-3Q172.29-3.45 172.29-3.95L172.29-3.95Q172.19-5.5 171.89-9L171.89-9Q171.64-11.05 171.64-14.05L171.64-14.05 171.64-28.3Q171.64-28.4 171.74-28.55 171.84-28.7 171.94-28.8L171.94-28.8 172.14-28.8Q172.19-28.75 172.39-28.75L172.39-28.75Q172.94-28.75 173.49-28.9L173.49-28.9Q174.29-29 174.69-29L174.69-29Q175.94-29 176.64-28.9L176.64-28.9Q177.04-28.9 177.54-28.85 178.04-28.8 178.64-28.8L178.64-28.8 178.79-28.95 180.99-28.95Q181.14-28.8 181.39-28.8L181.39-28.8 181.49-28.9 181.79-28.9Q181.99-28.9 182.04-28.95L182.04-28.95 182.19-28.95Q182.74-28.95 182.89-28.8L182.89-28.8 194.39-28.8Q194.44-28.75 194.54-28.7 194.64-28.65 194.69-28.65L194.69-28.65 194.89-28.75Q194.94-28.8 195.04-28.8L195.04-28.8Q196.19-28.8 196.69-26.9L196.69-26.9Q197.14-25.1 197.14-22.55L197.14-22.55Q197.14-22.3 196.94-22.18 196.74-22.05 196.29-21.95L196.29-21.95Q196.14-21.95 195.96-21.93 195.79-21.9 195.54-21.95L195.54-21.95 194.89-21.95 192.89-21.95Q192.39-21.95 192.11-21.93 191.84-21.9 191.64-21.9L191.64-21.9Q191.04-21.75 190.14-21.75L190.14-21.75 189.49-21.75Q189.29-21.75 189.19-21.78 189.09-21.8 189.04-21.8L189.04-21.8 188.69-21.65Q188.64-21.55 188.64-21.15L188.64-21.15Q188.54-20.65 188.44-18.9L188.44-18.9 188.39-16.8Q188.39-16.8 188.39-16.65L188.39-16.65Q188.39-16.6 188.41-16.5 188.44-16.4 188.54-16.3L188.54-16.3 189.44-16.3Q191.19-16.3 192.64-16.05L192.64-16.05Q193.39-15.95 194.01-15.65 194.64-15.35 194.89-14.95L194.89-14.95Q195.29-14.3 195.29-12.9L195.29-12.9Q195.29-11.65 195.24-11.15L195.24-11.15 195.24-9.45Q194.59-9.1 193.14-8.9L193.14-8.9Q192.09-8.65 190.94-8.65L190.94-8.65Q190.79-8.65 190.79-8.7L190.79-8.7Q190.69-8.8 190.64-8.8L190.64-8.8Q190.39-8.8 190.39-8.7L190.39-8.7Q190.29-8.65 190.14-8.65L190.14-8.65 189.89-8.65 189.64-8.75 189.44-8.65Q189.39-8.55 189.34-8.47 189.29-8.4 189.24-8.4L189.24-8.4 188.64-8.4Q187.94-8.4 187.64-8.2L187.64-8.2Q187.54-8.15 187.41-8 187.29-7.85 187.19-7.75L187.19-7.75Q187.19-4.15 187.14-2.9L187.14-2.9Q186.99-0.7 186.64 0L186.64 0 184.29 0.05Q183.89 0.15 183.39 0.15L183.39 0.15 182.89 0.15Q182.44 0.15 182.39 0.05L182.39 0.05Q182.24 0 182.04 0L182.04 0Q181.79 0 181.69 0.15L181.69 0.15 177.94 0.15 177.64 0.15 176.89 0.15 175.99 0.15 174.99 0.15Q174.69 0.2 174.14 0.2L174.14 0.2 173.64 0.2ZM218.29 6.2Q217.99 6.2 216.79 5.8L216.79 5.8Q216.59 5.75 216.19 5.55L216.19 5.55Q215.84 5.4 215.54 5.4L215.54 5.4Q215.34 5.4 214.84 5.15L214.84 5.15Q214.49 4.9 214.19 4.9L214.19 4.9 213.59 4.75Q213.29 4.75 213.19 4.7L213.19 4.7Q213.04 4.7 213.04 4.65L213.04 4.65Q211.44 4.3 209.79 3.5L209.79 3.5 206.54 2.15Q206.19 2 206.19 1.65L206.19 1.65Q206.19 1.35 206.34 1.05L206.34 1.05 207.69-1.3Q208.19-2.25 209.09-3.55L209.09-3.55Q209.44-3.9 209.79-4.8L209.79-4.8Q210.09-5.5 210.09-5.65L210.09-5.65Q209.34-7.1 208.19-8.75L208.19-8.75Q207.04-10.75 206.34-11.4L206.34-11.4Q206.24-11.65 205.89-12.2L205.89-12.2Q205.09-13.6 205.14-13.5L205.14-13.5 204.29-15Q203.94-15.5 203.44-16.5L203.44-16.5Q203.14-17 202.79-17.75L202.79-17.75Q202.34-18.5 202.29-18.65L202.29-18.65Q201.89-19.1 200.94-21.05L200.94-21.05Q200.04-23.05 200.04-23.45L200.04-23.45Q200.04-23.65 200.44-23.98 200.84-24.3 201.34-24.65L201.34-24.65Q202.94-25.4 203.44-25.55L203.44-25.55Q204.09-25.85 204.56-26.05 205.04-26.25 205.34-26.4L205.34-26.4Q206.49-26.95 208.54-27.75L208.54-27.75Q208.94-27.95 210.44-28.55L210.44-28.55Q210.99-28.7 211.44-28.7L211.44-28.7Q211.74-28.7 211.94-28.5L211.94-28.5Q212.14-28.4 212.54-27.7L212.54-27.7 214.29-23.9Q215.79-20.75 216.39-19.65L216.39-19.65Q216.49-19.5 216.59-19.28 216.69-19.05 216.79-18.95L216.79-18.95Q217.09-18.55 217.34-18.55L217.34-18.55Q217.49-18.55 217.61-18.7 217.74-18.85 217.79-18.95L217.79-18.95 221.19-27.9Q221.39-28.55 222.04-28.9L222.04-28.9Q222.59-29.25 223.39-29.15L223.39-29.15Q226.64-28.1 228.19-27.45L228.19-27.45Q231.24-26.2 232.69-25.25L232.69-25.25Q233.19-25 233.36-24.63 233.54-24.25 233.39-23.9L233.39-23.9Q233.34-23.45 233.14-23.15L233.14-23.15 232.84-22.55 224.84-5.2 224.44-4.2 219.54 5.15Q219.19 5.75 218.91 5.98 218.64 6.2 218.29 6.2L218.29 6.2Z" opacity="1" transform="matrix(1,0,0,1,0,0)" fill="#ffdb99" class="wordmark-text-0" data-fill-palette-color="primary" id="text-0"></path></svg></g></svg></g><g transform="matrix(1,0,0,1,0,37.157993469540266)"><svg viewBox="0 0 192 11.684917565642174" height="11.684917565642174" width="192"><g transform="matrix(1,0,0,1,0,0)"><svg width="192" viewBox="3.3 -34.35 736.8900000000001 44.85" height="11.684917565642174" data-palette-color="#f9f2f6"><path d="M32.85-5.2L32.85-18.3 26.6-5.5Q25.8-3.9 24.9-3.23 24-2.55 22.75-2.55L22.75-2.55Q21.15-2.55 20.05-3.68 18.95-4.8 17.2-7.75L17.2-7.75 11.4-18.3 11.4-4.15Q11.4-2 10.43-1 9.45 0 7.5 0L7.5 0Q5.3 0 4.3-0.98 3.3-1.95 3.3-4.8L3.3-4.8 3.3-26.6Q3.3-30.45 5.05-32.4 6.8-34.35 10.95-34.35L10.95-34.35Q12.5-34.35 13.65-33.83 14.8-33.3 15.38-32.63 15.95-31.95 16.5-30.95L16.5-30.95 23.2-16.3 30.3-30.7Q32.15-34.3 36.95-34.3L36.95-34.3Q39.2-34.3 40.8-33.52 42.4-32.75 43.33-31.03 44.25-29.3 44.25-26.7L44.25-26.7 44.25-4.95Q44.2 0 38 0L38 0Q35.75 0 34.33-1.23 32.9-2.45 32.85-5.2L32.85-5.2ZM64.9-11.85L64.9-11.85Q64.9-14.45 64.25-16.43 63.6-18.4 62.35-18.4L62.35-18.4Q61.5-18.4 60.85-17.4 60.2-16.4 59.9-14.95 59.6-13.5 59.6-11.85L59.6-11.85Q59.6-9.3 60.3-7.38 61-5.45 62.3-5.45 63.6-5.45 64.25-7.35 64.9-9.25 64.9-11.85ZM62.3 0.35L62.3 0.35Q58.4 0.35 55.27-1.05 52.15-2.45 50.27-5.25 48.4-8.05 48.4-11.8L48.4-11.8Q48.4-17.5 52.3-20.85 56.2-24.2 62.3-24.2 68.4-24.2 72.25-20.85 76.1-17.5 76.1-11.8L76.1-11.8Q76.1-6.15 72.17-2.9 68.25 0.35 62.3 0.35ZM91.05-15.4L91.05-5.35Q91.05-2.35 89.8-1.18 88.55 0 85.34 0L85.34 0Q82.4 0 81.34-1.38 80.3-2.75 80.3-5.9L80.3-5.9 80.3-18.2Q80.3-19.9 80.9-21.18 81.5-22.45 82.65-23.15 83.8-23.85 85.34-23.85L85.34-23.85Q89.15-23.85 90.34-21.65L90.34-21.65Q93.25-23.85 95.95-23.85L95.95-23.85Q101.2-23.85 101.2-18.85L101.2-18.85Q101.2-16.85 100.05-15.6 98.9-14.35 97.05-14.35L97.05-14.35Q95.95-14.35 95.27-14.8 94.59-15.25 94.02-15.7 93.45-16.15 92.7-16.15L92.7-16.15Q91.59-16.15 91.05-15.4L91.05-15.4ZM116.64 0.3L116.64 0.3Q110.54 0.3 106.57-2.85 102.59-6 102.59-11.45L102.59-11.45Q102.59-17.35 106.52-20.78 110.44-24.2 116.64-24.2L116.64-24.2Q122.49-24.2 125.22-22.13 127.94-20.05 127.94-16.45L127.94-16.45Q127.94-15.75 127.77-15.1 127.59-14.45 127.22-13.83 126.84-13.2 126.22-12.68 125.59-12.15 124.79-11.73 123.99-11.3 122.89-11.08 121.79-10.85 120.54-10.85L120.54-10.85 113.49-10.8Q113.99-9.2 115.29-8.28 116.59-7.35 118.59-7.35L118.59-7.35Q120.74-7.35 122.99-7.9L122.99-7.9Q123.94-8.15 125.07-8.7 126.19-9.25 126.69-9.25L126.69-9.25Q127.54-9.25 128.02-8.75 128.49-8.25 128.49-7.5L128.49-7.5Q128.49-6.6 127.69-5.33 126.89-4.05 125.47-2.78 124.04-1.5 121.69-0.6 119.34 0.3 116.64 0.3ZM113.24-14L113.24-14Q116.69-14.05 116.99-14.05L116.99-14.05Q117.74-14.05 118.09-14.95L118.09-14.95Q118.34-15.6 118.34-16.75L118.34-16.75Q118.34-19.9 116.44-19.9L116.44-19.9Q115.74-19.9 115.07-19.15 114.39-18.4 113.89-17.03 113.39-15.65 113.24-14ZM157.19-28.65L157.19-21.8Q160.49-24.25 164.34-24.25L164.34-24.25Q168.24-24.25 170.84-20.95 173.44-17.65 173.44-12.6L173.44-12.6Q173.44-6.5 169.49-3.08 165.54 0.35 159.24 0.35L159.24 0.35Q155.39 0.35 152.51-0.75 149.64-1.85 148.01-4.05 146.39-6.25 146.34-9.35L146.34-9.35 146.24-28.2Q146.24-31.3 147.74-32.75 149.24-34.2 151.74-34.2L151.74-34.2Q154.54-34.2 155.86-32.88 157.19-31.55 157.19-28.65L157.19-28.65ZM157.24-7.65L157.24-7.65Q158.14-5.95 159.74-5.95L159.74-5.95Q161.09-5.95 161.84-7.65 162.59-9.35 162.59-11.55L162.59-11.55Q162.59-12.75 162.39-13.9 162.19-15.05 161.84-15.98 161.49-16.9 160.94-17.48 160.39-18.05 159.69-18.05L159.69-18.05Q158.14-18.05 157.24-16.2L157.24-16.2Q157.24-15.55 157.24-12.48 157.24-9.4 157.24-7.65ZM193.74-11.85L193.74-11.85Q193.74-14.45 193.09-16.43 192.44-18.4 191.19-18.4L191.19-18.4Q190.34-18.4 189.69-17.4 189.04-16.4 188.74-14.95 188.44-13.5 188.44-11.85L188.44-11.85Q188.44-9.3 189.14-7.38 189.84-5.45 191.14-5.45 192.44-5.45 193.09-7.35 193.74-9.25 193.74-11.85ZM191.14 0.35L191.14 0.35Q187.24 0.35 184.11-1.05 180.99-2.45 179.11-5.25 177.24-8.05 177.24-11.8L177.24-11.8Q177.24-17.5 181.14-20.85 185.04-24.2 191.14-24.2 197.24-24.2 201.09-20.85 204.94-17.5 204.94-11.8L204.94-11.8Q204.94-6.15 201.01-2.9 197.09 0.35 191.14 0.35ZM225.28-11.85L225.28-11.85Q225.28-14.45 224.63-16.43 223.98-18.4 222.73-18.4L222.73-18.4Q221.88-18.4 221.23-17.4 220.58-16.4 220.28-14.95 219.98-13.5 219.98-11.85L219.98-11.85Q219.98-9.3 220.68-7.38 221.38-5.45 222.68-5.45 223.98-5.45 224.63-7.35 225.28-9.25 225.28-11.85ZM222.68 0.35L222.68 0.35Q218.78 0.35 215.66-1.05 212.53-2.45 210.66-5.25 208.78-8.05 208.78-11.8L208.78-11.8Q208.78-17.5 212.68-20.85 216.58-24.2 222.68-24.2 228.78-24.2 232.63-20.85 236.48-17.5 236.48-11.8L236.48-11.8Q236.48-6.15 232.56-2.9 228.63 0.35 222.68 0.35ZM253.48-7.1L253.48-7.1 251.68-7.1Q251.68-4.5 250.18-2.25 248.68 0 246.18 0L246.18 0Q243.38 0 242.06-1.58 240.73-3.15 240.73-7.15L240.73-7.15 240.73-27.7Q240.73-29.85 241.43-31.18 242.13-32.5 243.26-33.05 244.38-33.6 246.18-33.7L246.18-33.7Q249.28-33.7 250.33-31.63 251.38-29.55 251.38-24.45L251.38-24.45Q251.38-20.5 250.93-17.5L250.93-17.5Q251.28-16.4 253.18-16.4L253.18-16.4Q254.38-16.4 254.81-16.93 255.23-17.45 255.23-19.05L255.23-19.05Q255.23-21.4 256.46-22.45 257.68-23.5 260.63-23.5L260.63-23.5Q263.73-23.5 264.81-22.38 265.88-21.25 265.88-18.3L265.88-18.3Q265.88-15.2 264.03-13.5 262.18-11.8 259.88-11.8L259.88-11.8Q262.23-11.8 264.06-10.38 265.88-8.95 265.88-6.1L265.88-6.1Q265.88-2.3 264.86-1.15 263.83 0 260.63 0L260.63 0Q257.68 0 256.46-1.07 255.23-2.15 255.23-4.45L255.23-4.45Q255.23-5.6 255.03-6.18 254.83-6.75 254.51-6.93 254.18-7.1 253.48-7.1ZM281.58-24.2L281.58-24.2Q286.23-24.2 289.33-22.3 292.43-20.4 292.43-18.15L292.43-18.15Q292.43-17.5 291.88-16.95 291.33-16.4 290.48-16.4L290.48-16.4Q289.73-16.4 288.83-16.93 287.93-17.45 287.13-18.05 286.33-18.65 285.03-19.15 283.73-19.65 282.28-19.65L282.28-19.65Q280.33-19.65 280.33-18.45L280.33-18.45Q280.33-17.6 281.33-17.1 282.33-16.6 284.25-16.05 286.18-15.5 287.18-15L287.18-15Q290.93-13.55 292.33-11.88 293.73-10.2 293.73-7.45L293.73-7.45Q293.73-6.1 292.98-4.78 292.23-3.45 290.73-2.27 289.23-1.1 286.65-0.38 284.08 0.35 280.78 0.35L280.78 0.35Q274.33 0.35 271.13-2.6L271.13-2.6Q269.58-4.05 269.58-5.6L269.58-5.6Q269.58-6.55 270.2-7.1 270.83-7.65 271.98-7.65L271.98-7.65Q273.13-7.65 275.48-6.53 277.83-5.4 279.83-5.4L279.83-5.4Q282.58-5.4 282.58-6.75L282.58-6.75Q282.58-7.45 281.13-7.88 279.68-8.3 277.33-8.9 274.98-9.5 273.58-10.4L273.58-10.4Q271.38-11.35 270.5-12.78 269.63-14.2 269.63-16.25L269.63-16.25Q269.63-19.75 272.95-21.98 276.28-24.2 281.58-24.2ZM297.63-3.45L297.63-3.45Q297.63-4.55 298.23-5.4 298.83-6.25 300.05-6.75 301.28-7.25 303.03-7.25L303.03-7.25Q305.73-7.25 307.43-6.15 309.13-5.05 309.13-2.45L309.13-2.45Q309.13-0.55 308.38 1.15 307.63 2.85 306.45 4 305.28 5.15 303.9 5.98 302.53 6.8 301.28 7.2 300.03 7.6 299.08 7.6L299.08 7.6Q298.18 7.6 297.65 7.08 297.13 6.55 297.13 5.75L297.13 5.75Q297.13 4.7 297.88 4.35L297.88 4.35Q300.13 3.25 301.18 2.45 302.23 1.65 303.03 0.35L303.03 0.35Q300.68 0.35 299.15-0.55 297.63-1.45 297.63-3.45ZM357.52-5.2L357.52-18.3 351.27-5.5Q350.47-3.9 349.57-3.23 348.67-2.55 347.42-2.55L347.42-2.55Q345.82-2.55 344.72-3.68 343.62-4.8 341.87-7.75L341.87-7.75 336.07-18.3 336.07-4.15Q336.07-2 335.1-1 334.12 0 332.17 0L332.17 0Q329.97 0 328.97-0.98 327.97-1.95 327.97-4.8L327.97-4.8 327.97-26.6Q327.97-30.45 329.72-32.4 331.47-34.35 335.62-34.35L335.62-34.35Q337.17-34.35 338.32-33.83 339.47-33.3 340.05-32.63 340.62-31.95 341.17-30.95L341.17-30.95 347.87-16.3 354.97-30.7Q356.82-34.3 361.62-34.3L361.62-34.3Q363.87-34.3 365.47-33.52 367.07-32.75 368-31.03 368.92-29.3 368.92-26.7L368.92-26.7 368.92-4.95Q368.87 0 362.67 0L362.67 0Q360.42 0 359-1.23 357.57-2.45 357.52-5.2L357.52-5.2ZM389.57-11.85L389.57-11.85Q389.57-14.45 388.92-16.43 388.27-18.4 387.02-18.4L387.02-18.4Q386.17-18.4 385.52-17.4 384.87-16.4 384.57-14.95 384.27-13.5 384.27-11.85L384.27-11.85Q384.27-9.3 384.97-7.38 385.67-5.45 386.97-5.45 388.27-5.45 388.92-7.35 389.57-9.25 389.57-11.85ZM386.97 0.35L386.97 0.35Q383.07 0.35 379.94-1.05 376.82-2.45 374.94-5.25 373.07-8.05 373.07-11.8L373.07-11.8Q373.07-17.5 376.97-20.85 380.87-24.2 386.97-24.2 393.07-24.2 396.92-20.85 400.77-17.5 400.77-11.8L400.77-11.8Q400.77-6.15 396.84-2.9 392.92 0.35 386.97 0.35ZM415.72-15.4L415.72-5.35Q415.72-2.35 414.47-1.18 413.22 0 410.02 0L410.02 0Q407.07 0 406.02-1.38 404.97-2.75 404.97-5.9L404.97-5.9 404.97-18.2Q404.97-19.9 405.57-21.18 406.17-22.45 407.32-23.15 408.47-23.85 410.02-23.85L410.02-23.85Q413.82-23.85 415.02-21.65L415.02-21.65Q417.92-23.85 420.62-23.85L420.62-23.85Q425.87-23.85 425.87-18.85L425.87-18.85Q425.87-16.85 424.72-15.6 423.57-14.35 421.72-14.35L421.72-14.35Q420.62-14.35 419.94-14.8 419.27-15.25 418.69-15.7 418.12-16.15 417.37-16.15L417.37-16.15Q416.27-16.15 415.72-15.4L415.72-15.4ZM441.31 0.3L441.31 0.3Q435.21 0.3 431.24-2.85 427.26-6 427.26-11.45L427.26-11.45Q427.26-17.35 431.19-20.78 435.11-24.2 441.31-24.2L441.31-24.2Q447.16-24.2 449.89-22.13 452.61-20.05 452.61-16.45L452.61-16.45Q452.61-15.75 452.44-15.1 452.26-14.45 451.89-13.83 451.51-13.2 450.89-12.68 450.26-12.15 449.46-11.73 448.66-11.3 447.56-11.08 446.46-10.85 445.21-10.85L445.21-10.85 438.16-10.8Q438.66-9.2 439.96-8.28 441.26-7.35 443.26-7.35L443.26-7.35Q445.41-7.35 447.66-7.9L447.66-7.9Q448.61-8.15 449.74-8.7 450.86-9.25 451.36-9.25L451.36-9.25Q452.21-9.25 452.69-8.75 453.16-8.25 453.16-7.5L453.16-7.5Q453.16-6.6 452.36-5.33 451.56-4.05 450.14-2.78 448.71-1.5 446.36-0.6 444.01 0.3 441.31 0.3ZM437.91-14L437.91-14Q441.36-14.05 441.66-14.05L441.66-14.05Q442.41-14.05 442.76-14.95L442.76-14.95Q443.01-15.6 443.01-16.75L443.01-16.75Q443.01-19.9 441.11-19.9L441.11-19.9Q440.41-19.9 439.74-19.15 439.06-18.4 438.56-17.03 438.06-15.65 437.91-14ZM483.61-7.1L483.61-7.1 481.81-7.1Q481.81-4.5 480.31-2.25 478.81 0 476.31 0L476.31 0Q473.51 0 472.18-1.58 470.86-3.15 470.86-7.15L470.86-7.15 470.86-27.7Q470.86-29.85 471.56-31.18 472.26-32.5 473.38-33.05 474.51-33.6 476.31-33.7L476.31-33.7Q479.41-33.7 480.46-31.63 481.51-29.55 481.51-24.45L481.51-24.45Q481.51-20.5 481.06-17.5L481.06-17.5Q481.41-16.4 483.31-16.4L483.31-16.4Q484.51-16.4 484.93-16.93 485.36-17.45 485.36-19.05L485.36-19.05Q485.36-21.4 486.58-22.45 487.81-23.5 490.76-23.5L490.76-23.5Q493.86-23.5 494.93-22.38 496.01-21.25 496.01-18.3L496.01-18.3Q496.01-15.2 494.16-13.5 492.31-11.8 490.01-11.8L490.01-11.8Q492.36-11.8 494.18-10.38 496.01-8.95 496.01-6.1L496.01-6.1Q496.01-2.3 494.98-1.15 493.96 0 490.76 0L490.76 0Q487.81 0 486.58-1.07 485.36-2.15 485.36-4.45L485.36-4.45Q485.36-5.6 485.16-6.18 484.96-6.75 484.63-6.93 484.31-7.1 483.61-7.1ZM515.36-4.15L515.31-13.45Q515.31-16.25 513.11-16.25L513.11-16.25Q512.06-16.25 511.38-15.38 510.71-14.5 510.61-13.05L510.61-13.05 510.61-5.35Q510.61-2.3 509.36-1.15 508.11 0 504.96 0L504.96 0Q502.01 0 500.93-1.38 499.86-2.75 499.86-5.9L499.86-5.9 499.86-18.2Q499.86-20.75 501.23-22.3 502.61-23.85 504.91-23.85L504.91-23.85Q506.81-23.85 508.11-23.3 509.41-22.75 510.06-21.4L510.06-21.4Q513.96-23.95 519.56-23.95L519.56-23.95Q523.11-23.95 524.68-21.15 526.26-18.35 526.26-11.95L526.26-11.95Q526.26-8.8 526.11-6.83 525.96-4.85 525.63-3.43 525.31-2 524.61-1.3 523.91-0.6 522.98-0.3 522.06 0 520.61 0L520.61 0Q517.81 0 516.58-1.05 515.36-2.1 515.36-4.15L515.36-4.15ZM546.9-11.85L546.9-11.85Q546.9-14.45 546.25-16.43 545.6-18.4 544.35-18.4L544.35-18.4Q543.5-18.4 542.85-17.4 542.2-16.4 541.9-14.95 541.6-13.5 541.6-11.85L541.6-11.85Q541.6-9.3 542.3-7.38 543-5.45 544.3-5.45 545.6-5.45 546.25-7.35 546.9-9.25 546.9-11.85ZM544.3 0.35L544.3 0.35Q540.4 0.35 537.28-1.05 534.15-2.45 532.28-5.25 530.4-8.05 530.4-11.8L530.4-11.8Q530.4-17.5 534.3-20.85 538.2-24.2 544.3-24.2 550.4-24.2 554.25-20.85 558.1-17.5 558.1-11.8L558.1-11.8Q558.1-6.15 554.18-2.9 550.25 0.35 544.3 0.35ZM589.5-7.5L589.5-7.5Q590.8-7.5 591.12-8.13 591.45-8.75 591.45-10.45L591.45-10.45 591.5-19.4Q591.5-21.7 592.8-22.78 594.1-23.85 597.2-23.85L597.2-23.85Q598.55-23.85 599.4-23.55 600.25-23.25 600.87-22.58 601.5-21.9 601.82-20.53 602.15-19.15 602.3-17.23 602.45-15.3 602.45-12.3L602.45-12.3Q602.45-9.65 601.62-7.48 600.8-5.3 599.52-3.95 598.25-2.6 596.55-1.68 594.85-0.75 593.15-0.38 591.45 0 589.75 0L589.75 0Q585.7 0 582.3-2.55L582.3-2.55Q578.95 0 574.9 0L574.9 0Q573.2 0 571.52-0.38 569.85-0.75 568.12-1.68 566.4-2.6 565.1-3.95 563.8-5.3 562.97-7.48 562.15-9.65 562.15-12.3L562.15-12.3Q562.15-17.25 562.6-19.63 563.05-22 564.1-22.93 565.15-23.85 567.4-23.85L567.4-23.85Q569.5-23.85 570.75-23.35 572-22.85 572.52-21.9 573.05-20.95 573.05-19.4L573.05-19.4 573.1-10.5Q573.1-9.75 573.12-9.43 573.15-9.1 573.25-8.63 573.35-8.15 573.55-7.98 573.75-7.8 574.1-7.65 574.45-7.5 575-7.5L575-7.5Q577-7.5 577.35-8.65L577.35-8.65Q576.9-11.65 576.9-15.1L576.9-15.1Q576.9-18 577.1-19.63 577.3-21.25 577.97-22.25 578.65-23.25 579.65-23.55 580.65-23.85 582.5-23.85L582.5-23.85Q584.15-23.85 585.1-23.55 586.05-23.25 586.65-22.25 587.25-21.25 587.45-19.63 587.65-18 587.65-15.1L587.65-15.1Q587.65-11.6 587.25-8.6L587.25-8.6Q587.6-7.5 589.5-7.5ZM617.8-28.7L617.8-7.55Q617.8-3.5 616.45-1.75 615.1 0 612.3 0L612.3 0Q609.5 0 608.2-1.58 606.9-3.15 606.9-7.15L606.9-7.15 606.8-28.25Q606.8-29.55 607.07-30.55 607.35-31.55 607.82-32.25 608.3-32.95 609-33.4 609.7-33.85 610.52-34.05 611.35-34.25 612.3-34.25L612.3-34.25Q615.05-34.25 616.42-33.15 617.8-32.05 617.8-28.7L617.8-28.7ZM636.14 0.3L636.14 0.3Q630.04 0.3 626.07-2.85 622.09-6 622.09-11.45L622.09-11.45Q622.09-17.35 626.02-20.78 629.94-24.2 636.14-24.2L636.14-24.2Q641.99-24.2 644.72-22.13 647.44-20.05 647.44-16.45L647.44-16.45Q647.44-15.75 647.27-15.1 647.09-14.45 646.72-13.83 646.34-13.2 645.72-12.68 645.09-12.15 644.29-11.73 643.49-11.3 642.39-11.08 641.29-10.85 640.04-10.85L640.04-10.85 632.99-10.8Q633.49-9.2 634.79-8.28 636.09-7.35 638.09-7.35L638.09-7.35Q640.24-7.35 642.49-7.9L642.49-7.9Q643.44-8.15 644.57-8.7 645.69-9.25 646.19-9.25L646.19-9.25Q647.04-9.25 647.52-8.75 647.99-8.25 647.99-7.5L647.99-7.5Q647.99-6.6 647.19-5.33 646.39-4.05 644.97-2.78 643.54-1.5 641.19-0.6 638.84 0.3 636.14 0.3ZM632.74-14L632.74-14Q636.19-14.05 636.49-14.05L636.49-14.05Q637.24-14.05 637.59-14.95L637.59-14.95Q637.84-15.6 637.84-16.75L637.84-16.75Q637.84-19.9 635.94-19.9L635.94-19.9Q635.24-19.9 634.57-19.15 633.89-18.4 633.39-17.03 632.89-15.65 632.74-14ZM678.79-28.7L678.79-7.5Q678.79-3.45 677.44-1.73 676.09 0 673.29 0L673.29 0Q670.09 0 668.89-2L668.89-2Q665.64 0.35 661.04 0.35L661.04 0.35Q657.14 0.35 654.54-2.88 651.94-6.1 651.94-11.7L651.94-11.7Q651.94-17.4 654.49-20.78 657.04-24.15 661.04-24.15L661.04-24.15Q664.64-24.15 667.79-21.85L667.79-21.85 667.79-28.25Q667.79-31.3 669.29-32.77 670.79-34.25 673.29-34.25L673.29-34.25Q676.04-34.25 677.42-33.15 678.79-32.05 678.79-28.7L678.79-28.7ZM667.89-7.2L667.89-7.2 667.84-16.55Q666.99-17.95 665.64-17.95L665.64-17.95Q664.79-17.95 664.12-17 663.44-16.05 663.09-14.65 662.74-13.25 662.74-11.7L662.74-11.7Q662.74-9.4 663.49-7.6 664.24-5.8 665.59-5.8L665.59-5.8Q665.84-5.8 666.09-5.85 666.34-5.9 666.54-5.98 666.74-6.05 666.94-6.18 667.14-6.3 667.29-6.45 667.44-6.6 667.59-6.8 667.74-7 667.89-7.2ZM692.49 0.3L692.49 0.3Q688.54 0.3 685.94-2.93 683.34-6.15 683.34-11.8L683.34-11.8Q683.34-17.5 685.89-20.85 688.44-24.2 692.44-24.2L692.44-24.2Q696.49-24.2 699.94-21.4L699.94-21.4Q701.24-23.85 704.24-23.85L704.24-23.85Q706.94-23.85 708.46-22.65 709.99-21.45 709.99-18.35L709.99-18.35 709.99-9.2Q709.99-4.35 709.36-0.88 708.74 2.6 707.21 5.25 705.69 7.9 703.01 9.2 700.34 10.5 696.44 10.5L696.44 10.5Q693.74 10.5 691.44 9.75 689.14 9 687.79 7.9 686.44 6.8 685.69 5.7 684.94 4.6 684.94 3.8L684.94 3.8Q684.94 2.85 685.49 2.2 686.04 1.55 687.04 1.55L687.04 1.55Q687.64 1.55 690.06 2.85 692.49 4.15 693.99 4.15L693.99 4.15Q699.09 4.15 699.09-1.1L699.09-1.1Q696.19 0.3 692.49 0.3ZM699.29-7.2L699.29-7.2 699.24-16.65Q698.39-18.05 697.09-18.05L697.09-18.05Q696.19-18.05 695.51-17.1 694.84-16.15 694.51-14.75 694.19-13.35 694.19-11.8L694.19-11.8Q694.19-9.45 694.94-7.68 695.69-5.9 697.04-5.9L697.04-5.9Q698.39-5.9 699.29-7.2ZM728.34 0.3L728.34 0.3Q722.24 0.3 718.26-2.85 714.29-6 714.29-11.45L714.29-11.45Q714.29-17.35 718.21-20.78 722.14-24.2 728.34-24.2L728.34-24.2Q734.19-24.2 736.91-22.13 739.64-20.05 739.64-16.45L739.64-16.45Q739.64-15.75 739.46-15.1 739.29-14.45 738.91-13.83 738.54-13.2 737.91-12.68 737.29-12.15 736.49-11.73 735.69-11.3 734.59-11.08 733.49-10.85 732.24-10.85L732.24-10.85 725.19-10.8Q725.69-9.2 726.99-8.28 728.29-7.35 730.29-7.35L730.29-7.35Q732.44-7.35 734.69-7.9L734.69-7.9Q735.64-8.15 736.76-8.7 737.89-9.25 738.39-9.25L738.39-9.25Q739.24-9.25 739.71-8.75 740.19-8.25 740.19-7.5L740.19-7.5Q740.19-6.6 739.39-5.33 738.59-4.05 737.16-2.78 735.74-1.5 733.39-0.6 731.04 0.3 728.34 0.3ZM724.94-14L724.94-14Q728.39-14.05 728.69-14.05L728.69-14.05Q729.44-14.05 729.79-14.95L729.79-14.95Q730.04-15.6 730.04-16.75L730.04-16.75Q730.04-19.9 728.14-19.9L728.14-19.9Q727.44-19.9 726.76-19.15 726.09-18.4 725.59-17.03 725.09-15.65 724.94-14Z" opacity="1" transform="matrix(1,0,0,1,0,0)" fill="#f9f2f6" class="slogan-text-1" data-fill-palette-color="secondary" id="text-1"></path></svg></g></svg></g></svg></g></svg></g><g transform="matrix(1,0,0,1,36.67199999999999,55.93965141871483)"><svg viewBox="0 0 118.65600000000002 56.89159809908959" height="56.89159809908959" width="118.65600000000002"><g><svg xmlns="http://www.w3.org/2000/svg" xmlns:xlink="http://www.w3.org/1999/xlink" xmlns:a="http://ns.adobe.com/AdobeSVGViewerExtensions/3.0/" version="1.1" x="0" y="0" viewBox="0 0 97.42699999999999 46.713" enable-background="new -1.286 -24.917 100 100" xml:space="preserve" height="56.89159809908959" width="118.65600000000002" class="icon-icon-0" data-fill-palette-color="accent" id="icon-0"><path d="M35.03 35.148c-7.732-3.146-11.661-3.487-15.821-3.848-4.101-0.354-8.347-0.729-16.382-3.95-0.597 0.901-1.09 2.651-1.487 4.772 8.261 2.153 12.443 1.988 16.477 1.821 4.081-0.168 8.298-0.341 16.548 1.847 2.792 0.741 4.966 1.47 6.695 2.176C39.524 37.117 37.569 36.181 35.03 35.148z" fill="#e8dc91" data-fill-palette-color="accent"></path><path d="M34.048 37.982c-8.068-2.141-12.008-1.98-16.182-1.808-4.11 0.17-8.367 0.338-16.739-1.835-0.27 1.654-0.488 3.445-0.661 5.174 8.167 0.969 12.216 0.268 16.122-0.416 4.021-0.703 8.179-1.43 16.647-0.348 3.312 0.424 5.807 0.94 7.732 1.5C39.258 39.53 37.023 38.771 34.048 37.982z" fill="#e8dc91" data-fill-palette-color="accent"></path><path d="M16.801 41.31c-3.991 0.697-8.125 1.412-16.451 0.43C0.18 43.635 0.063 45.386 0 46.685c8.365-0.059 12.312-1.281 16.133-2.465 3.901-1.208 7.934-2.457 16.469-2.457 2.886 0 5.174 0.146 7.025 0.387-1.702-0.43-3.83-0.831-6.547-1.178C24.8 39.912 20.914 40.591 16.801 41.31z" fill="#e8dc91" data-fill-palette-color="accent"></path><path d="M79.611 33.969c4.043 0.165 8.232 0.333 16.533-1.835-0.41-2.307-0.904-4.096-1.479-4.783-8.078 3.246-12.334 3.619-16.447 3.975-4.16 0.361-8.09 0.7-15.822 3.849-2.539 1.034-4.496 1.97-6.031 2.821 1.729-0.707 3.904-1.438 6.699-2.178C71.312 33.628 75.531 33.802 79.611 33.969z" fill="#e8dc91" data-fill-palette-color="accent"></path><path d="M94.041 25.278L85.287 0c-6.336 2.515-9.715 2.807-12.984 3.09-3.342 0.289-6.498 0.562-12.707 3.089-8.611 3.506-9.078 5.696-9.328 6.873-0.121 0.565-0.264 1.197-1.038 1.609v28.725c0.004-0.006 0.012-0.012 0.017-0.02 0.036-0.052 0.068-0.115 0.1-0.184 0.065-0.158 0.114-0.348 0.174-0.625 0.39-1.831 1.042-4.896 12.414-9.523 7.904-3.22 12.111-3.583 16.18-3.936C82.107 28.753 86.234 28.397 94.041 25.278z" fill="#e8dc91" data-fill-palette-color="accent"></path><path d="M80.837 39.123c3.91 0.684 7.961 1.383 16.141 0.414-0.172-1.79-0.383-3.569-0.633-5.184-8.398 2.184-12.664 2.017-16.785 1.846-4.174-0.171-8.113-0.332-16.182 1.809-2.975 0.79-5.209 1.549-6.922 2.27 1.926-0.56 4.422-1.076 7.734-1.5C72.656 37.693 76.818 38.42 80.837 39.123z" fill="#e8dc91" data-fill-palette-color="accent"></path><path d="M81.294 44.247c3.82 1.183 7.768 2.406 16.133 2.466-0.072-1.51-0.188-3.213-0.336-4.948-8.334 0.985-12.473 0.269-16.465-0.429-4.113-0.719-7.998-1.397-16.279-0.338-2.715 0.348-4.844 0.75-6.545 1.178 1.85-0.238 4.137-0.387 7.023-0.387C73.361 41.789 77.394 43.039 81.294 44.247z" fill="#e8dc91" data-fill-palette-color="accent"></path><path d="M47.907 42.533c0.033 0.154 0.061 0.279 0.091 0.394V14.662c-0.774-0.412-0.917-1.044-1.037-1.609-0.251-1.177-0.717-3.367-9.329-6.873-6.209-2.527-9.365-2.8-12.706-3.089-3.27-0.283-6.647-0.576-12.981-3.089L3.382 25.25c7.81 3.121 11.938 3.479 15.933 3.824 4.068 0.353 8.274 0.717 16.179 3.934C46.866 37.636 47.518 40.702 47.907 42.533z" fill="#e8dc91" data-fill-palette-color="accent"></path></svg></g></svg></g><g></g></svg></g></svg></g></svg></g></svg></g><defs></defs></svg><rect width="320" height="360" fill="none" stroke="none" visibility="hidden"></rect></g></svg></g></svg>